{"title":"Mr. Joe B. Carvalho (2014) (Non Retail) DVDRip [320MB] -AshishRo","uid":9452831,"size":335662321,"categoryP":"video","categoryS":"movies","magnet":"?xt=urn:btih:07d1dd5c04eea333235d1c09eaee24f36d9c9f33&amp;dn=Mr.+Joe+B.+Carvalho+%282014%29+%28Non+Retail%29+DVDRip+%5B320MB%5D+-AshishRo&amp;tr=udp%3A%2F%2Ftracker.openbittorrent.com%3A80&amp;tr=udp%3A%2F%2Fopen.demonii.com%3A1337&amp;tr=udp%3A%2F%2Ftracker.coppersurfer.tk%3A6969&amp;tr=udp%3A%2F%2Fexodus.desync.com%3A6969","seeders":1,"leechers":0,"uploader":"ashish.p","files":2,"time":1389208352,"description":"General\n\nComplete name : Mr. Joe B. Carvalho (2014) (Non Retail) DVDRip [320MB] -AshishRocks- { DAKU RG }\nFormat : MPEG-4\nFormat profile : Base Media\nCodec ID : isom\nFile size :\t320 MiB\nDuration :\t 2h 2mn\nOverall bit rate mode : Variable\nOverall bit rate : 367 Kbps\nWriting application :\tLavf54.36.100\n\nVideo\n\nID : 1\nFormat : AVC\nFormat/Info : Advanced Video Codec\nFormat profile : &lt;a class=&quot;__cf_email__&quot; href=&quot;/cdn-cgi/l/email-protection&quot; data-cfemail=&quot;c785a6b4a2abaea9a2878bf5e9f6&quot;&gt;[email&amp;#160;protected]&lt;/a&gt;&lt;script cf-hash='f9e31' type=&quot;text/javascript&quot;&gt;\n/* &lt;![CDATA[ */!function(){try{var t=&quot;currentScript&quot;in document?document.currentScript:function(){for(var t=document.getElementsByTagName(&quot;script&quot;),e=t.length;e--;)if(t[e].getAttribute(&quot;cf-hash&quot;))return t[e]}();if(t&amp;&amp;t.previousSibling){var e,r,n,i,c=t.previousSibling,a=c.getAttribute(&quot;data-cfemail&quot;);if(a){for(e=&quot;&quot;,r=parseInt(a.substr(0,2),16),n=2;a.length-n;n+=2)i=parseInt(a.substr(n,2),16)^r,e+=String.fromCharCode(i);e=document.createTextNode(e),c.parentNode.replaceChild(e,c)}}}catch(u){}}();/* ]]&gt; */&lt;/script&gt;\nFormat settings, CABAC :\t No\nFormat settings, ReFrames : 2 frames\nCodec ID : avc1\nCodec ID/Info : Advanced Video Coding\nDuration :\t2h 2mn\nBit rate : 250 Kbps\nWidth : 600 pixels\nHeight : 240 pixels\nDisplay aspect ratio : 2.500\nFrame rate mode : Variable\nFrame rate : 25.000 fps\nMinimum frame rate : 12.500 fps\nMaximum frame rate : 25.000 fps\nColor space : YUV\nChroma subsampling : 4:2:0\nBit depth : 8 bits\nScan type : Progressive\nBits/(Pixel*Frame) :\t0.069\nStream size : 217 MiB (68%)\nWriting library : x264 core 128 r2 198a7ea\nTagged date :\tUTC 2014-01-06 16:12:20\n\nAudio\n\nID : 2\nFormat : AAC\nFormat/Info : Advanced Audio Codec\nFormat profile : LC\nCodec ID : 40\nDuration :\t2h 2mn\nDuration_LastFrame : -9ms\nBit rate mode :\tVariable\nBit rate : 96.0 Kbps\nMaximum bit rate : 250 Kbps\nChannel(s) : 2 channels\nChannel positions :\tFront: L R\nSampling rate : 44.1 KHz\nCompression mode : Lossy\nStream size : 83.8 MiB (26%)\nTagged date : UTC 2014-01-06 16:12:20","torrent":{"xt":"urn:btih:07d1dd5c04eea333235d1c09eaee24f36d9c9f33","amp;dn":"Mr.+Joe+B.+Carvalho+%282014%29+%28Non+Retail%29+DVDRip+%5B320MB%5D+-AshishRo","amp;tr":["udp%3A%2F%2Ftracker.openbittorrent.com%3A80","udp%3A%2F%2Fopen.demonii.com%3A1337","udp%3A%2F%2Ftracker.coppersurfer.tk%3A6969","udp%3A%2F%2Fexodus.desync.com%3A6969"],"infoHash":"07d1dd5c04eea333235d1c09eaee24f36d9c9f33","infoHashBuffer":{"type":"Buffer","data":[7,209,221,92,4,238,163,51,35,93,28,9,234,238,36,243,109,156,159,51]},"announce":[],"urlList":[]}}